<svg xmlns="http://www.w3.org/2000/svg" version="1.1" xmlns:xlink="http://www.w3.org/1999/xlink" xmlns:svgjs="http://svgjs.dev/svgjs" width="2000" height="1247" viewBox="0 0 2000 1247"><g transform="matrix(1,0,0,1,-1.2121212121212466,0.5193804360255854)"><svg viewBox="0 0 396 247" data-background-color="#d2d6dc" preserveAspectRatio="xMidYMid meet" height="1247" width="2000" xmlns="http://www.w3.org/2000/svg" xmlns:xlink="http://www.w3.org/1999/xlink"><g id="tight-bounds" transform="matrix(1,0,0,1,0.2400000000000091,-0.09987647770512353)"><svg viewBox="0 0 395.52 247.2" height="247.2" width="395.52"><g><svg></svg></g><g><svg viewBox="0 0 395.52 247.2" height="247.2" width="395.52"><g mask="url(&quot;#7963aec6-62cc-4cca-8df1-d4552fdb4c89&quot;)"><g><path xmlns="http://www.w3.org/2000/svg" d="M315.465-0.003h44.976l-40.862 228.786c-0.93 4.556-2.975 8.484-6.136 11.784-3.161 3.301-7.02 5.393-11.575 6.276v0c-4.649 0.79-9.042 0.279-13.179-1.534-4.137-1.813-7.415-4.649-9.832-8.507v0l-81.027-133.116-81.167 133.116c-1.952 3.301-4.602 5.857-7.949 7.67-3.347 1.813-6.95 2.719-10.808 2.72v0c-5.346 0-10.041-1.697-14.086-5.091-4.091-3.44-6.601-7.88-7.531-13.318v0l-41.21-228.786h44.976l29.287 161.217 69.8-111.36c1.906-3.254 4.532-5.811 7.88-7.67 3.347-1.813 6.95-2.719 10.808-2.72v0c3.858 0 7.438 0.906 10.738 2.72 3.301 1.859 6.02 4.416 8.159 7.67v0l69.451 111.36z" fill="#6b7280" fill-rule="nonzero" stroke="none" stroke-width="1" stroke-linecap="butt" stroke-linejoin="miter" stroke-miterlimit="10" stroke-dasharray="" stroke-dashoffset="0" font-family="none" font-weight="none" font-size="none" text-anchor="none" style="mix-blend-mode: normal" data-fill-palette-color="tertiary"></path></g></g><g transform="matrix(1,0,0,1,2.842170943040401e-14,90.48027622134052)"><svg viewBox="0 0 395.5199999999999 66.23944755731895" height="66.23944755731895" width="395.5199999999999"><g><svg viewBox="0 0 395.5199999999999 66.23944755731895" height="66.23944755731895" width="395.5199999999999"><g><svg viewBox="0 0 395.5199999999999 66.23944755731895" height="66.23944755731895" width="395.5199999999999"><g><svg viewBox="0 0 395.5199999999999 66.23944755731895" height="66.23944755731895" width="395.5199999999999"><g id="textblocktransform"><svg viewBox="0 0 395.5199999999999 66.23944755731895" height="66.23944755731895" width="395.5199999999999" id="textblock"><g><svg viewBox="0 0 395.5199999999999 66.23944755731895" height="66.23944755731895" width="395.5199999999999"><g transform="matrix(1,0,0,1,0,0)"><svg width="395.5199999999999" viewBox="-0.019999980926513672 -40.54999923706055 323.4100036621094 55" height="66.23944755731895" data-palette-color="#6b7280"><path d="M39.33-26.39L46.44-26.39Q44.92-23 43.16-19.71 41.41-16.43 39.49-13.5 37.57-10.57 35.57-8.09 33.57-5.62 31.6-3.82 29.64-2.03 27.77-1.01 25.9 0 24.24 0L24.24 0Q23.56 0 22.97-0.24 22.39-0.49 21.95-0.92 21.51-1.34 21.26-1.93 21.02-2.51 21.02-3.2L21.02-3.2 21.02-15.04 8.42-0.95Q7.93-0.46 7.36-0.23 6.79 0 6.18 0L6.18 0Q5.52 0 4.94-0.24 4.37-0.49 3.93-0.92 3.49-1.34 3.23-1.93 2.98-2.51 2.98-3.2L2.98-3.2 2.98-26.39 9.33-26.39 9.33-11.35 21.97-25.49Q22.66-26.17 23.6-26.35 24.54-26.54 25.44-26.15L25.44-26.15Q26.34-25.78 26.87-24.99 27.39-24.19 27.39-23.24L27.39-23.24 27.39-8.15Q29.44-10.13 31.1-12.33 32.76-14.53 34.19-16.86 35.62-19.19 36.88-21.59 38.13-24 39.33-26.39L39.33-26.39ZM74.8-17.65L74.8-8.74Q74.8-7.42 74.34-5.9 73.87-4.37 72.84-3.06 71.8-1.76 70.13-0.88 68.45 0 66.06 0L66.06 0 54.61 0Q53.29 0 51.77-0.46 50.24-0.93 48.94-1.97 47.63-3 46.75-4.68 45.87-6.35 45.87-8.74L45.87-8.74Q45.87-10.06 46.34-11.6 46.8-13.13 47.84-14.44 48.87-15.75 50.55-16.63 52.22-17.5 54.61-17.5L54.61-17.5 66.06-17.5 66.06-11.45 54.61-11.45Q53.32-11.45 52.61-10.66 51.9-9.86 51.9-8.69L51.9-8.69Q51.9-7.45 52.72-6.75 53.54-6.05 54.66-6.05L54.66-6.05 66.06-6.05Q67.36-6.05 68.06-6.84 68.77-7.62 68.77-8.79L68.77-8.79 68.77-17.65Q68.77-18.9 68-19.63 67.23-20.36 66.06-20.36L66.06-20.36 52.12-20.36 52.12-26.39 66.06-26.39Q67.38-26.39 68.91-25.93 70.43-25.46 71.74-24.43 73.04-23.39 73.92-21.72 74.8-20.04 74.8-17.65L74.8-17.65ZM91.82-6.35L91.82 0 88.98 0Q87.62 0 86.07-0.46 84.52-0.93 83.17-1.99 81.83-3.05 80.95-4.75 80.07-6.45 80.07-8.91L80.07-8.91 80.07-37.55 86.42-37.55 86.42-8.91Q86.42-7.74 87.15-7.04 87.89-6.35 88.98-6.35L88.98-6.35 91.82-6.35ZM124.28-17.65L124.28-17.65Q124.28-16.33 123.82-14.81 123.36-13.28 122.32-11.98 121.28-10.67 119.61-9.79 117.94-8.91 115.54-8.91L115.54-8.91 104.09-8.91 104.09-14.94 115.54-14.94Q116.84-14.94 117.55-15.73 118.25-16.53 118.25-17.7L118.25-17.7Q118.25-18.95 117.46-19.65 116.67-20.36 115.54-20.36L115.54-20.36 104.09-20.36Q102.8-20.36 102.09-19.57 101.38-18.77 101.38-17.6L101.38-17.6 101.38-8.74Q101.38-7.47 102.18-6.76 102.97-6.05 104.14-6.05L104.14-6.05 115.54-6.05 115.54 0 104.09 0Q102.78 0 101.25-0.46 99.72-0.93 98.42-1.97 97.11-3 96.23-4.68 95.35-6.35 95.35-8.74L95.35-8.74 95.35-17.65Q95.35-18.97 95.82-20.5 96.28-22.02 97.32-23.33 98.36-24.63 100.03-25.51 101.7-26.39 104.09-26.39L104.09-26.39 115.54-26.39Q116.86-26.39 118.39-25.93 119.91-25.46 121.22-24.43 122.53-23.39 123.41-21.72 124.28-20.04 124.28-17.65ZM157.66-26.39L157.66 2.54Q157.66 4.17 157.24 5.48 156.83 6.79 156.14 7.78 155.46 8.76 154.56 9.46 153.65 10.16 152.66 10.6 151.67 11.04 150.67 11.24 149.67 11.45 148.77 11.45L148.77 11.45 137.32 11.45 137.32 5.1 148.77 5.1Q150.04 5.1 150.67 4.44 151.31 3.78 151.31 2.54L151.31 2.54 151.31-26.39 157.66-26.39ZM148.77-6.35L148.77 0 137.32 0Q135.95 0 134.4-0.46 132.85-0.93 131.51-1.99 130.17-3.05 129.29-4.75 128.41-6.45 128.41-8.91L128.41-8.91 128.41-26.39 134.76-26.39 134.76-8.91Q134.76-7.67 135.41-7.01 136.07-6.35 137.37-6.35L137.37-6.35 148.77-6.35ZM186.46-20.36L186.46-14.65 163.56-14.65 163.56-20.36 186.46-20.36ZM217.83-6.35L217.83 0 200.62 0Q199.3 0 197.74-0.46 196.18-0.93 194.85-1.99 193.52-3.05 192.62-4.75 191.73-6.45 191.73-8.91L191.73-8.91 191.73-17.5Q191.73-18.41 191.94-19.41 192.15-20.41 192.59-21.4 193.03-22.39 193.72-23.29 194.42-24.19 195.41-24.88 196.4-25.56 197.69-25.98 198.98-26.39 200.62-26.39L200.62-26.39 217.83-26.39 217.83-20.04 200.62-20.04Q199.37-20.04 198.73-19.41 198.08-18.77 198.08-17.46L198.08-17.46 198.08-8.91Q198.08-7.67 198.74-7.01 199.4-6.35 200.67-6.35L200.67-6.35 217.83-6.35ZM251.59-17.5L251.59-8.91Q251.59-7.28 251.18-5.97 250.76-4.66 250.08-3.67 249.4-2.69 248.49-1.99 247.59-1.29 246.6-0.85 245.61-0.42 244.6-0.21 243.59 0 242.68 0L242.68 0 231.23 0Q229.91 0 228.35-0.46 226.79-0.93 225.46-1.99 224.13-3.05 223.24-4.75 222.35-6.45 222.35-8.91L222.35-8.91 222.35-17.5Q222.35-19.95 223.24-21.64 224.13-23.34 225.46-24.4 226.79-25.46 228.35-25.93 229.91-26.39 231.23-26.39L231.23-26.39 242.68-26.39Q245.12-26.39 246.83-25.51 248.54-24.63 249.59-23.3 250.64-21.97 251.12-20.41 251.59-18.85 251.59-17.5L251.59-17.5ZM245.25-8.91L245.25-17.46Q245.25-18.77 244.59-19.41 243.93-20.04 242.68-20.04L242.68-20.04 231.28-20.04Q230.01-20.04 229.35-19.4 228.69-18.75 228.69-17.5L228.69-17.5 228.69-8.91Q228.69-7.67 229.35-7.01 230.01-6.35 231.28-6.35L231.28-6.35 242.68-6.35Q243.98-6.35 244.61-7.01 245.25-7.67 245.25-8.91L245.25-8.91ZM285.94-37.55L285.94-8.91Q285.94-7.28 285.53-5.97 285.11-4.66 284.43-3.67 283.74-2.69 282.84-1.99 281.94-1.29 280.95-0.85 279.96-0.42 278.95-0.21 277.93 0 277.03 0L277.03 0 265.58 0Q263.94 0 262.65-0.42 261.36-0.83 260.37-1.53 259.38-2.22 258.68-3.13 257.99-4.03 257.55-5.02 257.11-6.01 256.9-7.02 256.69-8.03 256.69-8.91L256.69-8.91 256.69-17.5Q256.69-19.95 257.58-21.64 258.48-23.34 259.81-24.4 261.14-25.46 262.7-25.93 264.26-26.39 265.58-26.39L265.58-26.39 277.03-26.39 277.03-20.04 265.63-20.04Q264.36-20.04 263.7-19.4 263.04-18.75 263.04-17.5L263.04-17.5 263.04-8.96Q263.04-7.67 263.69-7.01 264.34-6.35 265.58-6.35L265.58-6.35 277.03-6.35Q278.32-6.35 278.96-7.01 279.59-7.67 279.59-8.91L279.59-8.91 279.59-37.55 285.94-37.55ZM320.39-17.65L320.39-17.65Q320.39-16.33 319.92-14.81 319.46-13.28 318.42-11.98 317.38-10.67 315.71-9.79 314.04-8.91 311.65-8.91L311.65-8.91 300.2-8.91 300.2-14.94 311.65-14.94Q312.94-14.94 313.65-15.73 314.36-16.53 314.36-17.7L314.36-17.7Q314.36-18.95 313.56-19.65 312.77-20.36 311.65-20.36L311.65-20.36 300.2-20.36Q298.9-20.36 298.2-19.57 297.49-18.77 297.49-17.6L297.49-17.6 297.49-8.74Q297.49-7.47 298.28-6.76 299.07-6.05 300.25-6.05L300.25-6.05 311.65-6.05 311.65 0 300.2 0Q298.88 0 297.35-0.46 295.83-0.93 294.52-1.97 293.21-3 292.34-4.68 291.46-6.35 291.46-8.74L291.46-8.74 291.46-17.65Q291.46-18.97 291.92-20.5 292.38-22.02 293.42-23.33 294.46-24.63 296.13-25.51 297.8-26.39 300.2-26.39L300.2-26.39 311.65-26.39Q312.97-26.39 314.49-25.93 316.02-25.46 317.32-24.43 318.63-23.39 319.51-21.72 320.39-20.04 320.39-17.65Z" opacity="1" transform="matrix(1,0,0,1,0,0)" fill="#6b7280" class="undefined-text-0" data-fill-palette-color="primary" id="text-0"></path></svg></g></svg></g></svg></g></svg></g></svg></g></svg></g></svg></g></svg></g><defs><mask id="7963aec6-62cc-4cca-8df1-d4552fdb4c89"><rect width="395.52" height="247.2" fill="white"></rect><g transform="matrix(1,0,0,1,2.842170943040401e-14,90.48027622134052)" id="clone"><svg viewBox="0 0 395.5199999999999 66.23944755731895" height="66.23944755731895" width="395.5199999999999"><g><svg viewBox="0 0 395.5199999999999 66.23944755731895" height="66.23944755731895" width="395.5199999999999"><g><svg viewBox="0 0 395.5199999999999 66.23944755731895" height="66.23944755731895" width="395.5199999999999"><g><svg viewBox="0 0 395.5199999999999 66.23944755731895" height="66.23944755731895" width="395.5199999999999"><g id="SvgjsG1156"><svg viewBox="0 0 395.5199999999999 66.23944755731895" height="66.23944755731895" width="395.5199999999999" id="SvgjsSvg1155"><g><svg viewBox="0 0 395.5199999999999 66.23944755731895" height="66.23944755731895" width="395.5199999999999"><g transform="matrix(1,0,0,1,0,0)"><svg width="395.5199999999999" viewBox="-0.019999980926513672 -40.54999923706055 323.4100036621094 55" height="66.23944755731895" data-palette-color="#6b7280"><path d="M39.33-26.39L46.44-26.39Q44.92-23 43.16-19.71 41.41-16.43 39.49-13.5 37.57-10.57 35.57-8.09 33.57-5.62 31.6-3.82 29.64-2.03 27.77-1.01 25.9 0 24.24 0L24.24 0Q23.56 0 22.97-0.24 22.39-0.49 21.95-0.92 21.51-1.34 21.26-1.93 21.02-2.51 21.02-3.2L21.02-3.2 21.02-15.04 8.42-0.95Q7.93-0.46 7.36-0.23 6.79 0 6.18 0L6.18 0Q5.52 0 4.94-0.24 4.37-0.49 3.93-0.92 3.49-1.34 3.23-1.93 2.98-2.51 2.98-3.2L2.98-3.2 2.98-26.39 9.33-26.39 9.33-11.35 21.97-25.49Q22.66-26.17 23.6-26.35 24.54-26.54 25.44-26.15L25.44-26.15Q26.34-25.78 26.87-24.99 27.39-24.19 27.39-23.24L27.39-23.24 27.39-8.15Q29.44-10.13 31.1-12.33 32.76-14.53 34.19-16.86 35.62-19.19 36.88-21.59 38.13-24 39.33-26.39L39.33-26.39ZM74.8-17.65L74.8-8.74Q74.8-7.42 74.34-5.9 73.87-4.37 72.84-3.06 71.8-1.76 70.13-0.88 68.45 0 66.06 0L66.06 0 54.61 0Q53.29 0 51.77-0.46 50.24-0.93 48.94-1.97 47.63-3 46.75-4.68 45.87-6.35 45.87-8.74L45.87-8.74Q45.87-10.06 46.34-11.6 46.8-13.13 47.84-14.44 48.87-15.75 50.55-16.63 52.22-17.5 54.61-17.5L54.61-17.5 66.06-17.5 66.06-11.45 54.61-11.45Q53.32-11.45 52.61-10.66 51.9-9.86 51.9-8.69L51.9-8.69Q51.9-7.45 52.72-6.75 53.54-6.05 54.66-6.05L54.66-6.05 66.06-6.05Q67.36-6.05 68.06-6.84 68.77-7.62 68.77-8.79L68.77-8.79 68.77-17.65Q68.77-18.9 68-19.63 67.23-20.36 66.06-20.36L66.06-20.36 52.12-20.36 52.12-26.39 66.06-26.39Q67.38-26.39 68.91-25.93 70.43-25.46 71.74-24.43 73.04-23.39 73.92-21.72 74.8-20.04 74.8-17.65L74.8-17.65ZM91.82-6.35L91.82 0 88.98 0Q87.62 0 86.07-0.46 84.52-0.93 83.17-1.99 81.83-3.05 80.95-4.75 80.07-6.45 80.07-8.91L80.07-8.91 80.07-37.55 86.42-37.55 86.42-8.91Q86.42-7.74 87.15-7.04 87.89-6.35 88.98-6.35L88.98-6.35 91.82-6.35ZM124.28-17.65L124.28-17.65Q124.28-16.33 123.82-14.81 123.36-13.28 122.32-11.98 121.28-10.67 119.61-9.79 117.94-8.91 115.54-8.91L115.54-8.91 104.09-8.91 104.09-14.94 115.54-14.94Q116.84-14.94 117.55-15.73 118.25-16.53 118.25-17.7L118.25-17.7Q118.25-18.95 117.46-19.65 116.67-20.36 115.54-20.36L115.54-20.36 104.09-20.36Q102.8-20.36 102.09-19.57 101.38-18.77 101.38-17.6L101.38-17.6 101.38-8.74Q101.38-7.47 102.18-6.76 102.97-6.05 104.14-6.05L104.14-6.05 115.54-6.05 115.54 0 104.09 0Q102.78 0 101.25-0.46 99.72-0.93 98.42-1.97 97.11-3 96.23-4.68 95.35-6.35 95.35-8.74L95.35-8.74 95.35-17.65Q95.35-18.97 95.82-20.5 96.28-22.02 97.32-23.33 98.36-24.63 100.03-25.51 101.7-26.39 104.09-26.39L104.09-26.39 115.54-26.39Q116.86-26.39 118.39-25.93 119.91-25.46 121.22-24.43 122.53-23.39 123.41-21.72 124.28-20.04 124.28-17.65ZM157.66-26.39L157.66 2.54Q157.66 4.17 157.24 5.48 156.83 6.79 156.14 7.78 155.46 8.76 154.56 9.46 153.65 10.16 152.66 10.6 151.67 11.04 150.67 11.24 149.67 11.45 148.77 11.45L148.77 11.45 137.32 11.45 137.32 5.1 148.77 5.1Q150.04 5.1 150.67 4.44 151.31 3.78 151.31 2.54L151.31 2.54 151.31-26.39 157.66-26.39ZM148.77-6.35L148.77 0 137.32 0Q135.95 0 134.4-0.46 132.85-0.93 131.51-1.99 130.17-3.05 129.29-4.75 128.41-6.45 128.41-8.91L128.41-8.91 128.41-26.39 134.76-26.39 134.76-8.91Q134.76-7.67 135.41-7.01 136.07-6.35 137.37-6.35L137.37-6.35 148.77-6.35ZM186.46-20.36L186.46-14.65 163.56-14.65 163.56-20.36 186.46-20.36ZM217.83-6.35L217.83 0 200.62 0Q199.3 0 197.74-0.46 196.18-0.93 194.85-1.99 193.52-3.05 192.62-4.75 191.73-6.45 191.73-8.91L191.73-8.91 191.73-17.5Q191.73-18.41 191.94-19.41 192.15-20.41 192.59-21.4 193.03-22.39 193.72-23.29 194.42-24.19 195.41-24.88 196.4-25.56 197.69-25.98 198.98-26.39 200.62-26.39L200.62-26.39 217.83-26.39 217.83-20.04 200.62-20.04Q199.37-20.04 198.73-19.41 198.08-18.77 198.08-17.46L198.08-17.46 198.08-8.91Q198.08-7.67 198.74-7.01 199.4-6.35 200.67-6.35L200.67-6.35 217.83-6.35ZM251.59-17.5L251.59-8.91Q251.59-7.28 251.18-5.97 250.76-4.66 250.08-3.67 249.4-2.69 248.49-1.99 247.59-1.29 246.6-0.85 245.61-0.42 244.6-0.21 243.59 0 242.68 0L242.68 0 231.23 0Q229.91 0 228.35-0.46 226.79-0.93 225.46-1.99 224.13-3.05 223.24-4.75 222.35-6.45 222.35-8.91L222.35-8.91 222.35-17.5Q222.35-19.95 223.24-21.64 224.13-23.34 225.46-24.4 226.79-25.46 228.35-25.93 229.91-26.39 231.23-26.39L231.23-26.39 242.68-26.39Q245.12-26.39 246.83-25.51 248.54-24.63 249.59-23.3 250.64-21.97 251.12-20.41 251.59-18.85 251.59-17.5L251.59-17.5ZM245.25-8.91L245.25-17.46Q245.25-18.77 244.59-19.41 243.93-20.04 242.68-20.04L242.68-20.04 231.28-20.04Q230.01-20.04 229.35-19.4 228.69-18.75 228.69-17.5L228.69-17.5 228.69-8.91Q228.69-7.67 229.35-7.01 230.01-6.35 231.28-6.35L231.28-6.35 242.68-6.35Q243.98-6.35 244.61-7.01 245.25-7.67 245.25-8.91L245.25-8.91ZM285.94-37.55L285.94-8.91Q285.94-7.28 285.53-5.97 285.11-4.66 284.43-3.67 283.74-2.69 282.84-1.99 281.94-1.29 280.95-0.85 279.96-0.42 278.95-0.21 277.93 0 277.03 0L277.03 0 265.58 0Q263.94 0 262.65-0.42 261.36-0.83 260.37-1.53 259.38-2.22 258.68-3.13 257.99-4.03 257.55-5.02 257.11-6.01 256.9-7.02 256.69-8.03 256.69-8.91L256.69-8.91 256.69-17.5Q256.69-19.95 257.58-21.64 258.48-23.34 259.81-24.4 261.14-25.46 262.7-25.93 264.26-26.39 265.58-26.39L265.58-26.39 277.03-26.39 277.03-20.04 265.63-20.04Q264.36-20.04 263.7-19.4 263.04-18.75 263.04-17.5L263.04-17.5 263.04-8.96Q263.04-7.67 263.69-7.01 264.34-6.35 265.58-6.35L265.58-6.35 277.03-6.35Q278.32-6.35 278.96-7.01 279.59-7.67 279.59-8.91L279.59-8.91 279.59-37.55 285.94-37.55ZM320.39-17.65L320.39-17.65Q320.39-16.33 319.92-14.81 319.46-13.28 318.42-11.98 317.38-10.67 315.71-9.79 314.04-8.91 311.65-8.91L311.65-8.91 300.2-8.91 300.2-14.94 311.65-14.94Q312.94-14.94 313.65-15.73 314.36-16.53 314.36-17.7L314.36-17.7Q314.36-18.95 313.56-19.65 312.77-20.36 311.65-20.36L311.65-20.36 300.2-20.36Q298.9-20.36 298.2-19.57 297.49-18.77 297.49-17.6L297.49-17.6 297.49-8.74Q297.49-7.47 298.28-6.76 299.07-6.05 300.25-6.05L300.25-6.05 311.65-6.05 311.65 0 300.2 0Q298.88 0 297.35-0.46 295.83-0.93 294.52-1.97 293.21-3 292.34-4.68 291.46-6.35 291.46-8.74L291.46-8.74 291.46-17.65Q291.46-18.97 291.92-20.5 292.38-22.02 293.42-23.33 294.46-24.63 296.13-25.51 297.8-26.39 300.2-26.39L300.2-26.39 311.65-26.39Q312.97-26.39 314.49-25.93 316.02-25.46 317.32-24.43 318.63-23.39 319.51-21.72 320.39-20.04 320.39-17.65Z" opacity="1" transform="matrix(1,0,0,1,0,0)" fill="#6b7280" class="undefined-text-0" data-fill-palette-color="primary" id="SvgjsPath1154" stroke-width="5" stroke="black" stroke-linejoin="round"></path></svg></g></svg></g></svg></g></svg></g></svg></g></svg></g></svg></g></mask></defs></svg><rect width="395.52" height="247.2" fill="none" stroke="none" visibility="hidden"></rect></g></svg></g></svg>